<svg width="28" height="28" viewBox="0 0 28 28" fill="none" xmlns="http://www.w3.org/2000/svg">
<path d="M26.5 20.15V23.9C26.5014 24.2481 26.4301 24.5927 26.2906 24.9117C26.1511 25.2307 25.9466 25.517 25.6901 25.7523C25.4335 25.9877 25.1307 26.1669 24.8009 26.2784C24.4711 26.3899 24.1217 26.4313 23.775 26.4C19.9285 25.982 16.2337 24.6677 12.9875 22.5625C9.96726 20.6433 7.40665 18.0827 5.48748 15.0625C3.37495 11.8015 2.06028 8.08874 1.64998 4.225C1.61874 3.87933 1.65982 3.53095 1.7706 3.20203C1.88138 2.87311 2.05944 2.57086 2.29343 2.31453C2.52743 2.05819 2.81223 1.85339 3.12972 1.71315C3.4472 1.57292 3.7904 1.50033 4.13748 1.5H7.88748C8.49411 1.49403 9.08222 1.70885 9.54218 2.10441C10.0021 2.49998 10.3026 3.04931 10.3875 3.65C10.5458 4.85008 10.8393 6.02841 11.2625 7.1625C11.4307 7.6099 11.4671 8.09614 11.3674 8.5636C11.2677 9.03106 11.0361 9.46014 10.7 9.8L9.11248 11.3875C10.8919 14.5169 13.483 17.1081 16.6125 18.8875L18.2 17.3C18.5398 16.9639 18.9689 16.7323 19.4364 16.6326C19.9038 16.5329 20.3901 16.5693 20.8375 16.7375C21.9716 17.1607 23.1499 17.4542 24.35 17.6125C24.9572 17.6982 25.5117 18.004 25.9081 18.4719C26.3046 18.9397 26.5152 19.537 26.5 20.15Z" stroke="#929292" stroke-width="2" stroke-linecap="round" stroke-linejoin="round"/>
</svg>
